<?xml version="1.0" encoding="UTF-8" standalone="no"?>
<svg version="1.0" width="69px" height="87px" viewBox="0 0 69 87" preserveAspectRatio="xMidYMid meet" id="svg30" sodipodi:docname="ascli-impersonation.svg" inkscape:version="1.4.2 (ebf0e940, 2025-05-08)"
   xmlns:inkscape="http://www.inkscape.org/namespaces/inkscape"
   xmlns:sodipodi="http://sodipodi.sourceforge.net/DTD/sodipodi-0.dtd"
   xmlns="http://www.w3.org/2000/svg"
   xmlns:svg="http://www.w3.org/2000/svg">
   <defs id="defs30" />
   <sodipodi:namedview id="namedview30" pagecolor="#ffffff" bordercolor="#000000" borderopacity="0.25" inkscape:showpageshadow="2" inkscape:pageopacity="0.0" inkscape:pagecheckerboard="0" inkscape:deskcolor="#d1d1d1" inkscape:zoom="10.107043" inkscape:cx="27.010868" inkscape:cy="42.000416" inkscape:window-width="1728" inkscape:window-height="1084" inkscape:window-x="575" inkscape:window-y="1113" inkscape:window-maximized="0" inkscape:current-layer="svg30" />
   <g fill="#fdf6e2" id="g1" style="display:inline">
      <path d="M 0.80318087,73.380007 C 1.2895221,62.899204 0.30132139,55.79566 12.790908,41.156452 10.061294,29.800791 12.091598,23.624227 18.17009,14.077727 18.357935,12.521652 16.965364,12.519092 15.636001,10.361913 18.357298,9.3625383 14.858061,7.1270529 15.113728,2.9883714 17.487321,3.8101941 22.390885,6.7625689 26.588531,7.9169924 33.050542,6.4362618 40.297548,5.517006 51.003818,6.9931809 54.945251,5.1274136 56.76371,4.4302866 59.639182,1.9640887 c 1.260702,2.1931102 -0.06217,5.1641053 -0.515454,6.372183 4.026842,-1.5854019 -0.481036,4.0715943 -0.442273,4.1568193 3.26691,2.876553 8.072394,18.387092 2.788455,28.962363 C 77.164613,61.498984 60.901727,79.988396 52.66,86.84 33.938042,86.997853 54.730709,86.558108 1.1635758,86.963818 0.46545392,85.314366 0.70498122,82.134319 1.2270894,79.936272 0.29382413,78.102392 0.80318087,73.380007 0.80318087,73.380007 Z" id="bodyback" sodipodi:nodetypes="ccccccccccccccc" />
   </g>
   <g fill="#11120f" id="g30" style="display:inline">
      <path d="m 8.79,87.02 c 0,-0.06 1.57,-1.66 3.49,-3.56 4.14,-4.1 5.36,-5.47 7.93,-8.88 1.36,-1.83 2.09,-2.92 3.08,-4.65 1.96,-3.45 3.12,-6.6 3.78,-10.33 0.3,-1.64 0.32,-5.36 0.04,-6.74 -0.41,-2.08 -0.61,-2.75 -1.03,-3.43 -1,-1.63 -1.95,-2.69 -3.21,-3.58 -0.31,-0.22 -0.55,-0.43 -0.56,-0.47 -0.02,-0.37 1.52,0.14 2.44,0.79 0.98,0.69 1.57,1.27 2.19,2.13 1.08,1.5 1.88,3.43 2.3,5.53 0.33,1.58 0.32,4.68 0,6.49 -0.7,3.92 -2.16,7.58 -4.6,11.54 -1.72,2.79 -2.83,4.29 -5.08,6.87 -3.44,3.92 -6.83,6.88 -9.14,7.96 -0.72,0.35 -1.63,0.53 -1.63,0.35 z" id="path2" />
      <path d="m 51.67,87.02 c -0.08,-0.2 0.67,-1.56 1.31,-2.39 1,-1.29 2.91,-3.99 3.54,-4.98 0.78,-1.24 2.9,-5.46 3.48,-6.94 1.36,-3.45 2.09,-6.08 2.53,-9.13 0.56,-3.98 0.46,-7.15 -0.39,-12.46 -0.25,-1.5 -0.44,-2.8 -0.44,-2.91 0.02,-0.46 1.25,2.41 1.73,4 0.38,1.28 0.74,2.96 1,4.61 0.24,1.54 0.25,5.56 0,7.21 -0.56,3.92 -1.29,6.53 -2.88,10.37 -0.49,1.18 -0.39,1.34 0.24,0.36 2.16,-3.42 4.09,-8.1 4.77,-11.6 0.4,-2.13 0.52,-5.98 0.24,-7.9 -0.24,-1.61 -0.73,-3.61 -1.11,-4.56 -0.47,-1.18 -1.49,-3.22 -2.17,-4.33 -0.61,-0.99 -2.38,-3.42 -2.48,-3.42 -0.04,0.01 -0.18,0.16 -0.32,0.34 -0.42,0.55 -1.39,1.57 -1.44,1.51 -0.16,-0.16 0.2,-1.47 0.69,-2.58 0.3,-0.67 0.67,-1.62 0.84,-2.1 0.16,-0.47 0.4,-1.15 0.55,-1.51 0.26,-0.64 0.74,-2.42 0.74,-2.7 0,-0.29 -0.22,-0.16 -0.95,0.54 -2.95,2.88 -6.15,3.83 -9.35,2.76 -1.04,-0.35 -1.74,-0.74 -2.68,-1.49 -0.69,-0.54 -1.92,-1.88 -1.92,-2.06 0,-0.27 -0.18,0.02 -0.23,0.36 -0.1,0.7 -1.11,3.45 -1.55,4.22 -0.44,0.78 -1.15,1.6 -1.56,1.82 -0.21,0.11 -0.32,0.03 -1.55,-1.23 -1.09,-1.11 -1.44,-1.53 -1.92,-2.37 -0.54,-0.93 -0.83,-1.3 -0.64,-0.85 0.04,0.09 0.09,0.35 0.1,0.56 0.03,0.39 0.03,0.39 -0.11,0.07 -0.08,-0.18 -0.17,-0.53 -0.2,-0.79 -0.07,-0.58 -0.61,-1.99 -0.77,-1.99 -0.06,0 -0.6,0.49 -1.19,1.1 -2.99,3.04 -5.34,4.19 -8.79,4.3 -2.73,0.1 -4.8,-0.54 -6.72,-2.08 -2.99,-2.4 -4.58,-6.22 -4.58,-11.05 0,-3.05 0.55,-5.44 1.78,-7.74 1.74,-3.25 4.22,-4.97 7.85,-5.42 0.56,-0.07 0.58,-0.08 0.3,-0.17 -0.16,-0.06 -0.49,-0.21 -0.73,-0.35 -0.25,-0.13 -0.74,-0.31 -1.12,-0.38 -0.38,-0.08 -1.42,-0.39 -2.33,-0.71 -0.91,-0.32 -2.02,-0.67 -2.49,-0.79 -1.1,-0.27 -3.68,-0.8 -3.72,-0.76 -0.14,0.14 3.66,2.21 4.65,2.54 1.27,0.42 0.54,0.84 -1.28,0.74 -1.29,-0.08 -1.15,-0.15 -2.24,1.22 -1.51,1.92 -2.51,3.65 -3.47,6.07 -1.15,2.84 -1.83,5.97 -1.98,9.12 -0.11,1.99 0.28,5.82 0.85,8.5 0.11,0.51 0.2,1.15 0.2,1.42 0,0.52 -0.08,0.64 -1.54,2.28 -2.75,3.1 -5.81,7.93 -7.35,11.6 -1.09,2.61 -2,5.7 -2.29,7.75 -0.04,0.26 -0.03,0.27 0.07,0.11 0.06,-0.1 0.22,-0.35 0.35,-0.54 0.13,-0.2 0.61,-1.07 1.08,-1.93 0.95,-1.81 2.61,-4.48 3.26,-5.28 0.43,-0.53 0.43,-0.53 0.37,-0.22 -0.11,0.5 -0.79,1.99 -2.16,4.74 -1.94,3.89 -2.62,5.62 -3.37,8.65 -0.5,2.03 -0.74,3.83 -0.74,5.54 0.01,1.18 0.01,1.18 0.22,0.94 0.11,-0.14 0.68,-1.22 1.27,-2.42 1.21,-2.47 2.47,-4.69 3.39,-6 1.25,-1.82 1.4,-2.1 1.79,-3.67 0.39,-1.62 0.71,-2.46 1.44,-3.94 0.64,-1.27 1.4,-2.43 2.04,-3.12 0.51,-0.54 0.51,-0.54 0.33,0 -0.1,0.3 -0.47,1.14 -0.83,1.86 -1.09,2.21 -1.94,5.13 -1.94,6.59 0,1.34 0.33,1.86 1.18,1.85 0.36,0 0.63,-0.09 1.05,-0.34 0.69,-0.38 2.13,-1.72 2.67,-2.45 0.21,-0.3 0.77,-1.07 1.24,-1.73 1.06,-1.45 1.58,-2.07 1.73,-2.02 0.12,0.05 -0.88,2.26 -1.62,3.6 -0.69,1.22 -1.04,2.06 -1.42,3.45 -0.38,1.38 -0.41,1.89 -0.13,2.27 0.38,0.52 0.69,0.68 1.3,0.66 1.76,-0.04 3.54,-1.6 5.92,-5.2 0.77,-1.16 0.86,-1.26 0.89,-1.01 0.07,0.59 -0.89,2.57 -2.12,4.38 -1.56,2.28 -1.97,2.91 -2.99,4.61 -1.64,2.7 -3.76,5.75 -5.57,8 -1.54,1.92 -4.54,5.11 -5.5,5.87 -0.56,0.44 -1.67,1.12 -1.74,1.06 -0.02,-0.03 0.93,-1.17 2.11,-2.55 4.71,-5.49 7.84,-9.75 9.63,-13.12 0.55,-1.05 0.55,-1.05 -0.13,-1.01 -0.86,0.05 -1.63,-0.18 -2.31,-0.69 -0.28,-0.21 -0.55,-0.38 -0.61,-0.38 -0.07,0 -0.33,0.36 -0.59,0.8 -0.26,0.43 -0.65,1.06 -0.88,1.37 -0.85,1.15 -3.23,4.78 -5.08,7.75 C 2.93,84.33 1.5,86.3 0.74,86.6 0.54,86.68 0.51,86.54 0.36,84.85 0.18,82.9 0.29,79.73 0.57,78.67 0.64,78.38 0.61,78.09 0.39,77.24 0.12,76.2 0.11,76.08 0.12,73.7 c 0,-1.75 0.05,-2.84 0.18,-3.75 0.09,-0.7 0.21,-2.48 0.26,-3.95 0.1,-3.02 0.25,-4.19 0.8,-6.36 1.28,-5.02 3.4,-9.56 6.53,-13.95 1.22,-1.71 2.12,-2.78 3.32,-3.98 0.8,-0.79 0.8,-0.79 0.8,-1.43 0,-0.36 -0.09,-0.96 -0.19,-1.33 -0.59,-2.15 -0.89,-5.81 -0.72,-8.69 0.13,-2.11 0.25,-2.86 0.81,-5.17 0.59,-2.4 1.21,-4.06 2.33,-6.23 0.64,-1.23 2,-3.28 2.92,-4.38 0.27,-0.32 0.44,-0.61 0.4,-0.65 C 17.52,13.8 17.18,13.56 16.83,13.31 15.96,12.7 15.05,11.48 14.26,9.86 14.07,9.48 14.05,9.36 14.15,9.15 c 0.13,-0.29 0.32,-0.28 1.29,0.06 0.3,0.1 0.57,0.18 0.61,0.18 0.12,0 -0.11,-0.57 -0.73,-1.88 -0.7,-1.47 -0.94,-2.26 -1.05,-3.49 -0.12,-1.39 0.05,-2.33 0.42,-2.33 0.07,0 0.79,0.39 1.61,0.88 2.58,1.52 4.96,2.68 7.29,3.56 0.54,0.21 1.21,0.48 1.48,0.63 0.64,0.35 1.44,0.35 2.55,0.01 2.4,-0.73 5.66,-1.3 8.7,-1.54 2.78,-0.21 9.32,0.28 12.24,0.92 2.04,0.45 2.13,0.45 2.71,0.08 0.27,-0.17 1.36,-0.75 2.44,-1.28 2,-1 4.25,-2.46 4.61,-3.01 0.29,-0.44 1.45,-1.62 1.74,-1.77 0.29,-0.14 0.29,-0.14 0.56,0.97 0.45,1.82 0.33,3.99 -0.34,5.67 -0.14,0.35 -0.24,0.64 -0.22,0.66 0.03,0.02 0.39,-0.01 0.82,-0.07 0.85,-0.11 0.95,-0.07 0.95,0.42 0,0.38 -0.54,1.92 -0.95,2.64 -0.21,0.36 -0.62,0.93 -0.95,1.27 -0.32,0.34 -0.57,0.64 -0.57,0.67 0,0.02 0.22,0.37 0.47,0.76 0.27,0.39 0.65,0.99 0.86,1.31 0.64,1.01 1.68,3.12 1.97,4 0.15,0.46 0.41,1.21 0.59,1.68 0.34,0.87 0.49,1.48 0.83,3.26 0.35,1.77 0.43,3.29 0.38,6.61 -0.05,3.2 -0.09,3.62 -0.57,5.63 -0.36,1.51 -1.48,5.05 -1.69,5.3 -0.12,0.15 -0.1,0.18 0.67,1.16 1.66,2.15 3.87,5.99 4.71,8.2 1.01,2.65 1.58,6.97 1.35,10.27 -0.14,2.12 -0.38,3.45 -0.92,5.37 -0.57,1.97 -1.21,3.51 -2.53,6.07 -2.39,4.66 -4.58,7.7 -7.9,11.01 -2.05,2.04 -3.87,3.47 -4.86,3.82 -0.27,0.1 -0.48,0.21 -0.48,0.25 0,0.15 -0.5,0.08 -0.55,-0.07 z M 2.95,82.08 c 0.39,-0.59 1.04,-1.6 1.43,-2.22 0.38,-0.62 1.86,-2.93 3.27,-5.13 1.41,-2.2 2.77,-4.34 3.03,-4.77 0.56,-0.93 1.9,-3.62 1.83,-3.69 -0.02,-0.03 -0.24,0.07 -0.47,0.2 -0.62,0.37 -1.58,0.66 -2.12,0.66 C 9.28,67.12 8.73,66.85 8.25,66.3 7.86,65.85 7.85,65.84 7.65,66.01 7.53,66.11 6.93,67.1 6.31,68.21 3.74,72.82 3.05,74.56 2.29,78.38 1.77,81.04 1.77,81.05 1.85,82.2 c 0.06,0.88 0.09,1.03 0.23,1 0.1,-0.02 0.49,-0.51 0.89,-1.12 z M 30.57,39.63 c 2.48,-0.42 4.19,-1.4 6.24,-3.55 1.58,-1.66 2.75,-3.57 3.39,-5.54 0.27,-0.81 0.38,-1.02 0.85,-1.52 0.58,-0.63 1.02,-0.94 1.53,-1.1 0.49,-0.15 1.61,-0.12 1.93,0.05 0.48,0.25 1.24,1 1.57,1.55 0.36,0.61 0.86,2.41 1.01,3.62 0.18,1.45 0.99,2.66 2.53,3.8 2.61,1.92 5.18,2.24 7.8,0.97 2.35,-1.15 3.98,-3.3 4.69,-6.22 0.4,-1.67 0.52,-2.82 0.45,-4.6 -0.07,-1.93 -0.23,-2.99 -0.7,-4.9 -0.78,-3.1 -1.68,-5.22 -3.07,-7.29 -0.68,-1.02 -0.94,-1.25 -1.43,-1.32 -1.52,-0.23 -1.75,-0.29 -1.73,-0.43 0.02,-0.09 0.15,-0.19 0.3,-0.23 0.54,-0.15 2.21,-1.36 2.77,-2.02 0.5,-0.59 0.64,-0.83 0.48,-0.83 -0.19,0 -1.97,1.11 -2.93,1.81 -0.6,0.45 -1.3,0.96 -1.54,1.12 -0.57,0.38 -0.6,0.5 -0.13,0.62 0.44,0.13 1.79,0.92 2.56,1.51 1.14,0.87 2.14,2.18 2.68,3.46 0.41,1.01 0.9,2.72 0.87,3.11 -0.01,0.17 -0.03,0.32 -0.03,0.32 -0.08,0 -0.58,-0.92 -0.82,-1.5 -0.88,-2.09 -2.58,-3.8 -4.44,-4.44 -0.53,-0.19 -0.85,-0.23 -1.74,-0.23 -1.7,0.01 -3.02,0.5 -4.66,1.72 -1.08,0.8 -1.73,1.55 -2.5,2.84 -1.06,1.76 -1.51,2.74 -1.72,3.71 -0.04,0.15 -0.11,0.25 -0.16,0.22 -0.16,-0.1 -0.12,-1.69 0.06,-2.36 0.22,-0.87 1.3,-3.03 2.01,-4.03 1.14,-1.59 2.95,-3.22 4.98,-4.47 1.23,-0.76 1.77,-1.18 2.94,-2.31 2.17,-2.1 3.3,-3.77 4.06,-6.07 0.14,-0.42 0.29,-1.03 0.33,-1.33 0.06,-0.55 0.06,-0.55 -0.61,0.08 -1.62,1.51 -3.62,2.67 -6.02,3.47 -0.62,0.22 -0.79,0.34 -1.7,1.22 -0.56,0.53 -1.13,1.04 -1.25,1.11 -0.4,0.22 -0.38,-0.07 0.1,-0.86 0.48,-0.82 0.5,-0.88 0.27,-0.87 -0.1,0 -1.09,-0.13 -2.2,-0.3 -5.51,-0.83 -8.8,-0.96 -13.08,-0.5 -2.13,0.22 -5.86,0.93 -6.09,1.15 -0.08,0.08 0.16,0.28 0.77,0.67 0.48,0.31 1.12,0.72 1.41,0.92 0.57,0.38 2.34,2.05 2.26,2.13 -0.12,0.12 -1.94,-0.58 -2.68,-1.03 C 27.87,9.59 26.82,9.08 24.84,8.42 22.59,7.67 19.25,6.25 17.53,5.3 16.89,4.93 16.34,4.69 16.32,4.75 c -0.05,0.13 0.99,2.23 1.52,3.1 0.28,0.43 0.83,1.08 1.46,1.69 1.74,1.67 3.45,2.65 5.7,3.24 0.73,0.2 1.76,0.51 2.27,0.7 0.51,0.18 1.88,0.6 3.01,0.92 2.88,0.82 3.89,1.25 5.3,2.29 1.99,1.47 4.14,4.5 4.69,6.62 0.29,1.11 0.01,1.02 -0.71,-0.23 -0.55,-0.95 -1.82,-2.55 -2.59,-3.25 -1.63,-1.49 -3.47,-2.52 -5.3,-2.96 -3.84,-0.91 -7.62,-0.2 -9.68,1.83 -1.97,1.93 -3.4,5.67 -3.41,8.94 -0.01,5.52 2.68,9.97 6.98,11.54 1.5,0.54 3.44,0.71 5.02,0.44 z m 12.97,-0.1 c 0,-0.02 -0.05,-0.28 -0.11,-0.56 -0.15,-0.68 -0.37,-1.12 -1.16,-2.24 -0.36,-0.51 -0.68,-0.98 -0.72,-1.04 -0.04,-0.06 -0.1,-0.08 -0.13,-0.04 -0.03,0.03 0.16,0.42 0.42,0.88 0.64,1.09 1.5,2.76 1.5,2.92 0,0.07 0.05,0.13 0.1,0.13 0.06,0 0.1,-0.02 0.1,-0.05 z m 2.02,-2.47 c 0.26,-0.92 0.32,-3.51 0.11,-4.64 -0.35,-1.83 -1.15,-3.01 -2.27,-3.32 -0.48,-0.14 -0.82,-0.05 -1.27,0.34 -0.38,0.33 -0.38,0.33 0.26,0.73 0.76,0.48 1.31,1.15 1.85,2.23 0.48,0.99 0.66,1.81 0.75,3.43 0.06,1.31 0.2,2.05 0.34,1.92 0.05,-0.05 0.16,-0.36 0.25,-0.68 z" id="path3" />
      <path d="m 30.7,33.61 c -1.12,-0.26 -2.22,-0.87 -3.02,-1.69 -1.29,-1.32 -1.85,-2.73 -1.86,-4.68 0,-1.91 0.58,-3.47 1.76,-4.66 1.49,-1.51 3.33,-2.05 5.44,-1.61 1.47,0.32 2.82,1.3 3.81,2.8 1.92,2.94 1.11,7.05 -1.81,8.99 -1.16,0.77 -3,1.14 -4.32,0.84 z m 2.33,-0.98 c 2.66,-0.7 4.29,-3.04 4.17,-5.93 -0.05,-1.01 -0.16,-1.28 -1.04,-2.54 -0.92,-1.31 -1.86,-1.92 -3.39,-2.21 -2.72,-0.51 -4.76,0.64 -5.6,3.17 -0.23,0.69 -0.27,0.96 -0.27,2.12 -0.01,1.46 0.09,1.9 0.66,2.99 0.53,1.01 2.01,2.17 3.09,2.43 0.58,0.14 1.81,0.12 2.37,-0.03 z" id="path4" />
      <path d="m 31.59,30.41 c -0.63,-0.2 -1.29,-0.74 -1.71,-1.4 -0.32,-0.52 -0.49,-1.37 -0.43,-2.12 0.09,-1.2 0.62,-2.13 1.45,-2.56 0.83,-0.42 1.73,-0.29 2.52,0.38 0.373085,0.368554 -0.454079,0.714948 -0.54,1.16 -0.08592,0.445052 0.355719,1.095043 0.814688,1.187046 0.458968,0.092 0.652873,-0.466612 1.015312,-0.307046 0.332873,0.22374 0.07,1.19 -0.05,1.64 -0.12,0.45 -0.7,1.27 -1.13,1.62 -0.5,0.38 -1.37,0.56 -1.94,0.39 z" id="path5" sodipodi:nodetypes="ccccczzcsccc" />
      <path d="m 50.39,32.57 c -2.08,-0.31 -3.87,-2.43 -4.28,-5.1 -0.37,-2.35 0.13,-4.03 1.62,-5.51 1.34,-1.33 2.73,-1.82 4.34,-1.49 1.71,0.36 2.63,1.06 3.36,2.59 0.6,1.26 0.79,2.1 0.79,3.65 0,1.09 -0.04,1.39 -0.23,1.96 -0.35,1.04 -0.68,1.62 -1.29,2.26 -1.22,1.3 -2.7,1.87 -4.3,1.64 z m 2.1,-1.09 c 1.21,-0.59 2.24,-1.93 2.65,-3.45 0.22,-0.85 0.22,-2.55 -0.01,-3.33 -0.63,-2.17 -2.17,-3.39 -4.1,-3.26 -1.09,0.07 -1.81,0.38 -2.48,1.05 -0.71,0.71 -1.2,1.46 -1.53,2.33 -0.32,0.86 -0.37,2.3 -0.1,3.3 0.44,1.73 1.85,3.3 3.27,3.67 0.59,0.16 1.63,0.02 2.3,-0.32 z" id="path6" />
      <path d="m 49.74,29.47 c -0.62,-0.2 -1.29,-0.82 -1.56,-1.44 -0.46,-1.07 -0.35,-2.71 0.27,-3.58 0.15,-0.22 0.46,-0.49 0.71,-0.63 0.38,-0.2 0.54,-0.23 1.05,-0.19 0.53,0.04 1.22,0.31 1.22,0.46 0,0.03 -0.13,0.11 -0.3,0.17 -0.28,0.1 -0.3,0.15 -0.3,0.6 0,0.94 0.71,1.4 1.29,0.85 0.26,-0.25 0.26,-0.25 0.38,0.2 0.14,0.56 0.14,1.37 0,1.89 -0.15,0.54 -0.61,1.24 -1,1.5 -0.43,0.29 -1.18,0.37 -1.77,0.18 z" id="path7" />
      <path d="m 37.78,14.49 c -0.84,-0.83 -1.86,-1.82 -2.26,-2.2 -0.54,-0.51 -0.82,-0.88 -1.1,-1.42 -0.52,-1.04 -0.48,-1.51 0.05,-0.67 0.15,0.23 1.08,1.26 2.07,2.29 1,1.04 1.96,2.1 2.16,2.37 0.36,0.49 0.72,1.14 0.64,1.14 -0.02,0 -0.72,-0.68 -1.57,-1.5 z" id="path8" />
      <path d="m 41.4,14.98 c -0.17,-0.18 -0.63,-0.79 -1.03,-1.36 -0.93,-1.31 -1.62,-2.05 -2.14,-2.29 -0.31,-0.14 -0.48,-0.32 -0.71,-0.71 -0.17,-0.29 -0.31,-0.58 -0.31,-0.65 0,-0.21 0.58,-0.03 1.06,0.33 0.96,0.71 3.97,5 3.51,5 -0.05,0 -0.23,-0.15 -0.38,-0.32 z" id="path9" />
      <path d="m 43.79,14.56 c -0.04,-0.25 -0.06,-1.4 -0.04,-2.57 0.03,-2.32 0.03,-2.33 0.51,-1.33 0.31,0.65 0.3,2.39 -0.03,3.53 C 44.1,14.63 43.96,15 43.92,15 43.88,15 43.81,14.8 43.78,14.56 Z" id="path10" />
      <path d="m 46.15,13.09 c -0.14,-0.89 -0.01,-2.13 0.27,-2.74 0.28,-0.6 0.59,-0.77 0.7,-0.38 0.12,0.44 -0.14,1.75 -0.51,2.66 -0.38,0.94 -0.38,0.94 -0.45,0.46 z" id="path11" />
      <path d="m 36.18,85.43 c 0.28,-0.13 0.54,-0.24 0.6,-0.24 0.05,0 0.61,-0.41 1.23,-0.92 1.06,-0.87 2.34,-2.22 2.77,-2.93 0.29,-0.47 0.33,-0.29 0.08,0.43 -0.57,1.75 -2.24,3.3 -4.02,3.76 -0.31,0.08 -0.7,0.15 -0.87,0.14 -0.28,-0.01 -0.27,-0.02 0.2,-0.25 z" id="path12" />
      <path d="m 42.41,83.56 c -0.03,-0.09 0.03,-0.19 0.16,-0.26 0.83,-0.44 2.66,-2.13 3.74,-3.47 0.9,-1.1 1.15,-1.52 1.57,-2.59 0.44,-1.16 0.49,-0.75 0.08,0.64 -0.47,1.54 -1.19,2.77 -2.3,3.93 -0.75,0.8 -1.37,1.25 -2.09,1.54 -0.84,0.34 -1.09,0.38 -1.15,0.21 z" id="path13" />
      <path d="M 28.73,81.79 C 28.43,81.73 28.05,81.6 27.88,81.51 27.57,81.34 26.95,80.71 26.76,80.37 26.57,80 26.43,78.86 26.5,78.22 c 0.08,-0.82 0.3,-0.87 0.38,-0.1 0.07,0.64 0.38,1.51 0.66,1.87 0.35,0.43 0.89,0.65 1.65,0.65 0.91,0 1.55,-0.21 2.41,-0.78 0.95,-0.64 2.58,-2.33 3.14,-3.26 0.24,-0.4 0.45,-0.68 0.47,-0.62 0.07,0.23 -0.86,2.3 -1.4,3.11 -0.86,1.29 -1.88,2.15 -2.99,2.53 -0.8,0.26 -1.46,0.32 -2.1,0.17 z" id="path14" />
      <path d="m 50,81.65 c 0.06,-0.04 0.41,-0.28 0.79,-0.52 1.22,-0.81 3.24,-2.97 4.35,-4.68 0.51,-0.8 1.23,-2.16 1.37,-2.62 0.11,-0.35 0.36,-0.7 0.44,-0.64 0.16,0.1 -0.49,2.17 -0.99,3.21 -0.91,1.87 -1.8,3 -3.21,4.1 -0.98,0.76 -1.92,1.23 -2.47,1.23 -0.22,0 -0.35,-0.04 -0.3,-0.08 z" id="path15" />
      <path d="m 40.42,73.19 c -0.92,-0.23 -1.76,-0.91 -1.96,-1.58 -0.1,-0.33 0.29,-0.38 0.48,-0.07 0.22,0.33 1.09,0.72 1.6,0.72 1.02,0 2.33,-0.83 3.31,-2.08 0.32,-0.39 0.82,-1.24 1.14,-1.87 0.63,-1.26 0.75,-1.24 0.48,0.06 -0.42,2.02 -1.68,3.86 -3.07,4.49 -0.62,0.28 -1.54,0.43 -1.97,0.33 z" id="path16" />
      <path d="m 31.86,71.86 c -0.64,-0.11 -1.42,-0.55 -1.82,-1.04 -0.76,-0.94 -1.24,-2.57 -1.09,-3.65 0.08,-0.46 0.08,-0.46 0.41,0.55 0.97,2.88 2.58,3.86 4.67,2.84 0.72,-0.36 1.56,-1.15 2.18,-2.09 0.39,-0.57 0.41,-0.59 0.36,-0.27 -0.11,0.54 -0.7,1.68 -1.16,2.21 -0.58,0.68 -1.43,1.19 -2.25,1.38 -0.38,0.09 -0.72,0.15 -0.76,0.15 -0.04,-0.01 -0.29,-0.05 -0.54,-0.09 z" id="path17" />
      <path d="m 49.63,71.05 c -0.26,-0.07 -0.38,-0.16 -0.38,-0.28 0,-0.13 0.11,-0.19 0.48,-0.24 0.65,-0.09 1.58,-0.57 2.23,-1.16 1.04,-0.95 1.71,-2.02 2.61,-4.18 0.55,-1.31 0.61,-1.43 0.73,-1.36 0.24,0.15 -0.2,2.2 -0.77,3.61 -0.96,2.38 -3.24,4.06 -4.91,3.6 z" id="path18" />
      <path d="m 57.55,65.24 c 0,-0.05 -0.07,-0.09 -0.16,-0.09 -0.11,0 -0.03,-0.14 0.24,-0.44 0.41,-0.47 1.04,-1.58 1.4,-2.52 0.29,-0.71 1.09,-3.53 1.09,-3.81 0,-0.12 0.06,-0.24 0.14,-0.27 0.21,-0.08 0.31,1.62 0.16,2.67 -0.23,1.72 -0.69,2.69 -1.74,3.74 -0.64,0.64 -1.13,0.95 -1.13,0.72 z" id="path19" />
      <path d="m 47.04,62.79 c -0.24,-0.11 -0.69,-0.7 -0.53,-0.7 0.06,0 0.29,0.05 0.48,0.11 0.6,0.18 1.25,-0.1 2.1,-0.89 0.55,-0.52 0.77,-0.81 1.08,-1.47 0.56,-1.19 0.69,-1.92 0.65,-3.89 -0.02,-0.9 -0.01,-1.63 0.01,-1.6 0.02,0.02 0.23,0.47 0.45,1.02 0.23,0.53 0.51,1.14 0.63,1.32 0.28,0.45 0.93,1.04 1.24,1.12 0.65,0.16 1.4,-0.28 1.87,-1.09 0.41,-0.72 0.87,-2.3 0.94,-3.3 0.03,-0.5 0.11,-0.92 0.16,-0.94 0.13,-0.03 0.33,1.1 0.34,1.98 0.02,1.5 -0.6,3.38 -1.29,3.9 -0.83,0.63 -2.03,0.76 -2.99,0.33 -0.54,-0.25 -0.54,-0.25 -0.58,-0.03 -0.02,0.12 -0.09,0.46 -0.15,0.77 -0.38,1.87 -1.92,3.36 -3.56,3.42 -0.36,0.02 -0.73,-0.01 -0.84,-0.06 z" id="path20" />
      <path d="m 42.69,61.47 c -0.8,-0.32 -1.41,-0.89 -2.21,-2.06 -0.17,-0.27 -0.36,-0.47 -0.4,-0.47 -0.05,0 -0.29,0.32 -0.54,0.69 -0.72,1.08 -1.37,1.48 -2.41,1.48 -0.72,0 -1,-0.1 -1.65,-0.59 -0.87,-0.65 -1.61,-1.97 -1.83,-3.26 -0.2,-1.15 -0.21,-1.23 -0.11,-1.14 0.05,0.06 0.14,0.24 0.2,0.41 0.16,0.47 1.08,1.79 1.65,2.36 0.28,0.29 0.69,0.6 0.92,0.72 0.48,0.25 1.28,0.28 1.69,0.07 0.77,-0.4 1.73,-1.99 2.12,-3.54 0.13,-0.51 0.13,-0.51 0.21,0.03 0.07,0.56 0.81,2.45 1.19,3.06 0.49,0.81 1.36,1.27 2.1,1.14 1.16,-0.22 1.96,-1.19 2.68,-3.26 0.28,-0.79 0.28,-0.79 0.28,0.16 0.01,1.15 -0.21,1.95 -0.77,2.82 -0.44,0.69 -0.88,1.06 -1.59,1.32 -0.55,0.21 -1.09,0.23 -1.53,0.06 z" id="path21" />
      <path d="m 36.6,49.44 c -0.38,-0.14 -0.38,-0.47 0.01,-0.47 0.48,0 1.46,-0.29 2.35,-0.7 0.65,-0.3 1.01,-0.54 1.57,-1.1 0.4,-0.38 0.73,-0.65 0.73,-0.59 0,0.07 -0.14,0.4 -0.31,0.76 -0.37,0.79 -0.94,1.3 -2.02,1.83 -0.68,0.35 -0.88,0.39 -1.43,0.38 -0.35,0 -0.75,-0.05 -0.9,-0.11 z" id="path22" />
      <path d="m 46.95,48.85 c -0.49,-0.12 -1.47,-0.64 -1.8,-0.97 -0.27,-0.26 -0.19,-0.39 0.13,-0.23 0.46,0.25 3.23,0.78 3.58,0.68 0.24,-0.06 0.35,0.07 0.17,0.21 -0.18,0.14 -1.15,0.41 -1.44,0.4 -0.14,-0.01 -0.42,-0.05 -0.64,-0.1 z" id="path23" />
      <path d="m 33.22,48.27 c -0.03,-0.05 -0.03,-0.1 0.01,-0.1 0.05,0 -0.11,-0.2 -0.35,-0.43 -0.42,-0.43 -0.42,-0.43 0.46,-0.38 1.12,0.06 1.95,-0.18 2.93,-0.82 0.38,-0.25 0.73,-0.44 0.8,-0.44 0.22,0 0.25,0.33 0.07,0.58 -0.31,0.4 -1.64,1.24 -2.34,1.47 -0.69,0.23 -1.48,0.29 -1.59,0.12 z" id="path24" />
      <path d="m 50.91,47.08 c -0.42,-0.1 -1.56,-0.7 -1.75,-0.94 -0.19,-0.22 -0.05,-0.28 0.32,-0.15 0.47,0.17 2.28,0.4 3.06,0.4 0.7,0 0.82,0.08 0.45,0.32 -0.51,0.34 -1.49,0.5 -2.08,0.37 z" id="path25" />
      <path d="m 29.51,46.65 c -0.43,-0.12 -0.93,-0.4 -1.15,-0.67 -0.09,-0.12 0.05,-0.13 0.81,-0.1 0.93,0.04 2.04,-0.17 2.72,-0.52 0.15,-0.08 0.46,-0.19 0.68,-0.24 0.38,-0.08 0.4,-0.08 0.29,0.07 -0.61,0.83 -1.22,1.24 -2.07,1.45 -0.73,0.17 -0.69,0.17 -1.27,0.01 z" id="path26" />
      <path d="m 53.75,45.28 c -0.34,-0.2 -1.1,-1.03 -1.01,-1.12 0.01,-0.02 0.31,0.08 0.65,0.22 0.45,0.19 0.79,0.25 1.3,0.25 1.03,0 1.48,-0.35 2.1,-1.56 0.14,-0.29 0.3,-0.52 0.34,-0.52 0.2,0 0.32,0.28 0.32,0.7 0,0.39 -0.06,0.54 -0.38,0.95 -0.48,0.61 -0.95,0.96 -1.53,1.15 -0.67,0.23 -1.32,0.2 -1.8,-0.07 z" id="path27" />
      <path d="m 18.11,44.11 c -0.66,-0.32 -2.78,-0.88 -3.28,-0.88 -0.18,0 -0.33,-0.04 -0.33,-0.09 0,-0.15 0.89,-0.4 1.38,-0.4 0.85,0 2.02,0.54 2.66,1.21 0.37,0.39 0.21,0.45 -0.43,0.16 z" id="path28" />
      <path d="m 18.89,40.47 c -0.33,-0.13 -1.42,-1.38 -1.72,-1.97 -0.26,-0.51 -0.6,-1.86 -0.58,-2.31 0,-0.11 0.09,0.04 0.2,0.34 0.11,0.3 0.43,0.9 0.72,1.33 0.53,0.79 1.55,2.36 1.68,2.6 0.08,0.14 0,0.14 -0.3,0.02 z" id="path29" />
      <path d="m 14.81,35.32 c -0.53,-1.29 -0.67,-2.1 -0.51,-3.14 0.06,-0.43 0.2,-0.95 0.31,-1.15 0.2,-0.38 0.2,-0.38 0.21,0.86 0,1.21 0.22,3.38 0.39,4.04 0.18,0.64 0.03,0.41 -0.39,-0.6 z" id="path30" />
   </g>
</svg>
