<?xml version="1.0" encoding="utf-8"?>
<!DOCTYPE svg PUBLIC "-//W3C//DTD SVG 1.0//EN" "http://www.w3.org/TR/2001/REC-SVG-20010904/DTD/svg10.dtd">
<svg version="1.0" xmlns="http://www.w3.org/2000/svg" width="69px" height="87px" viewBox="0 0 69 87" preserveAspectRatio="xMidYMid meet">
 <g fill="#fdf6e2">
  <path d="M0.03 79.05 c0.04 -6.74 0.08 -8.31 0.21 -9.21 0.09 -0.59 0.20 -2.31 0.25 -3.80 0.11 -3.08 0.26 -4.24 0.81 -6.41 1.28 -5.02 3.40 -9.56 6.53 -13.95 1.22 -1.71 2.12 -2.78 3.32 -3.98 0.80 -0.79 0.80 -0.79 0.80 -1.43 0 -0.36 -0.09 -0.96 -0.19 -1.33 -0.59 -2.15 -0.89 -5.81 -0.72 -8.69 0.13 -2.11 0.25 -2.86 0.81 -5.17 0.59 -2.40 1.21 -4.06 2.33 -6.23 0.64 -1.23 2 -3.28 2.92 -4.38 0.27 -0.32 0.44 -0.61 0.40 -0.65 -0.04 -0.03 -0.38 -0.27 -0.73 -0.52 -0.87 -0.61 -1.78 -1.83 -2.57 -3.45 -0.19 -0.38 -0.21 -0.50 -0.11 -0.71 0.13 -0.29 0.32 -0.28 1.29 0.06 0.30 0.10 0.57 0.18 0.61 0.18 0.12 0 -0.11 -0.57 -0.73 -1.88 -0.70 -1.47 -0.94 -2.26 -1.05 -3.49 -0.12 -1.39 0.05 -2.33 0.42 -2.33 0.07 0 0.79 0.39 1.61 0.88 2.58 1.52 4.96 2.68 7.29 3.56 0.54 0.21 1.21 0.48 1.48 0.63 0.64 0.35 1.44 0.35 2.55 0.01 2.40 -0.73 5.66 -1.30 8.70 -1.54 2.78 -0.21 9.32 0.28 12.24 0.92 2.04 0.45 2.13 0.45 2.71 0.08 0.27 -0.17 1.36 -0.75 2.44 -1.28 2 -1 4.25 -2.46 4.61 -3.01 0.29 -0.44 1.45 -1.62 1.74 -1.77 0.29 -0.14 0.29 -0.14 0.56 0.97 0.45 1.82 0.33 3.99 -0.34 5.67 -0.14 0.35 -0.24 0.64 -0.22 0.66 0.03 0.02 0.39 -0.01 0.82 -0.07 0.85 -0.11 0.95 -0.07 0.95 0.42 0 0.38 -0.54 1.92 -0.95 2.64 -0.21 0.36 -0.62 0.93 -0.95 1.27 -0.32 0.34 -0.57 0.64 -0.57 0.67 0 0.02 0.22 0.37 0.47 0.76 0.27 0.39 0.65 0.99 0.86 1.31 0.64 1.01 1.68 3.12 1.97 4 0.15 0.46 0.41 1.21 0.59 1.68 0.34 0.87 0.49 1.48 0.83 3.26 0.35 1.77 0.43 3.29 0.38 6.61 -0.05 3.20 -0.09 3.62 -0.57 5.63 -0.36 1.51 -1.48 5.05 -1.69 5.30 -0.12 0.15 -0.10 0.18 0.67 1.16 1.66 2.15 3.87 5.99 4.71 8.20 1.01 2.65 1.58 6.97 1.35 10.27 -0.14 2.12 -0.38 3.45 -0.92 5.37 -0.57 1.97 -1.21 3.51 -2.53 6.07 -2.39 4.66 -4.58 7.70 -7.90 11.01 -2.05 2.04 -3.87 3.47 -4.86 3.82 -0.27 0.10 -0.48 0.21 -0.48 0.25 0 0.05 -11.76 0.08 -26.12 0.08 -26.11 0 -26.11 0 -26.07 -8.11z"/>
 </g>
 <g fill="#11120f">
  <path d="M8.79 87.02 c0 -0.06 1.57 -1.66 3.49 -3.56 4.14 -4.10 5.36 -5.47 7.93 -8.88 1.36 -1.83 2.09 -2.92 3.08 -4.65 1.96 -3.45 3.12 -6.60 3.78 -10.33 0.30 -1.64 0.32 -5.36 0.04 -6.74 -0.41 -2.08 -0.61 -2.75 -1.03 -3.43 -1 -1.63 -1.95 -2.69 -3.21 -3.58 -0.31 -0.22 -0.55 -0.43 -0.56 -0.47 -0.02 -0.37 1.52 0.14 2.44 0.79 0.98 0.69 1.57 1.27 2.19 2.13 1.08 1.50 1.88 3.43 2.30 5.53 0.33 1.58 0.32 4.68 0 6.49 -0.70 3.92 -2.16 7.58 -4.60 11.54 -1.72 2.79 -2.83 4.29 -5.08 6.87 -3.44 3.92 -6.83 6.88 -9.14 7.96 -0.72 0.35 -1.63 0.53 -1.63 0.35z"/>
  <path d="M51.67 87.02 c-0.08 -0.20 0.67 -1.56 1.31 -2.39 1 -1.29 2.91 -3.99 3.54 -4.98 0.78 -1.24 2.90 -5.46 3.48 -6.94 1.36 -3.45 2.09 -6.08 2.53 -9.13 0.56 -3.98 0.46 -7.15 -0.39 -12.46 -0.25 -1.50 -0.44 -2.80 -0.44 -2.91 0.02 -0.46 1.25 2.41 1.73 4 0.38 1.28 0.74 2.96 1 4.61 0.24 1.54 0.25 5.56 0 7.21 -0.56 3.92 -1.29 6.53 -2.88 10.37 -0.49 1.18 -0.39 1.34 0.24 0.36 2.16 -3.42 4.09 -8.10 4.77 -11.60 0.40 -2.13 0.52 -5.98 0.24 -7.90 -0.24 -1.61 -0.73 -3.61 -1.11 -4.56 -0.47 -1.18 -1.49 -3.22 -2.17 -4.33 -0.61 -0.99 -2.38 -3.42 -2.48 -3.42 -0.04 0.01 -0.18 0.16 -0.32 0.34 -0.42 0.55 -1.39 1.57 -1.44 1.51 -0.16 -0.16 0.20 -1.47 0.69 -2.58 0.30 -0.67 0.67 -1.62 0.84 -2.10 0.16 -0.47 0.40 -1.15 0.55 -1.51 0.26 -0.64 0.74 -2.42 0.74 -2.70 0 -0.29 -0.22 -0.16 -0.95 0.54 -2.95 2.88 -6.15 3.83 -9.35 2.76 -1.04 -0.35 -1.74 -0.74 -2.68 -1.49 -0.69 -0.54 -1.92 -1.88 -1.92 -2.06 0 -0.27 -0.18 0.02 -0.23 0.36 -0.10 0.70 -1.11 3.45 -1.55 4.22 -0.44 0.78 -1.15 1.60 -1.56 1.82 -0.21 0.11 -0.32 0.03 -1.55 -1.23 -1.09 -1.11 -1.44 -1.53 -1.92 -2.37 -0.54 -0.93 -0.83 -1.30 -0.64 -0.85 0.04 0.09 0.09 0.35 0.10 0.56 0.03 0.39 0.03 0.39 -0.11 0.07 -0.08 -0.18 -0.17 -0.53 -0.20 -0.79 -0.07 -0.58 -0.61 -1.99 -0.77 -1.99 -0.06 0 -0.60 0.49 -1.19 1.10 -2.99 3.04 -5.34 4.19 -8.79 4.30 -2.73 0.10 -4.80 -0.54 -6.72 -2.08 -2.99 -2.40 -4.58 -6.22 -4.58 -11.05 0 -3.05 0.55 -5.44 1.78 -7.74 1.74 -3.25 4.22 -4.97 7.85 -5.42 0.56 -0.07 0.58 -0.08 0.30 -0.17 -0.16 -0.06 -0.49 -0.21 -0.73 -0.35 -0.25 -0.13 -0.74 -0.31 -1.12 -0.38 -0.38 -0.08 -1.42 -0.39 -2.33 -0.71 -0.91 -0.32 -2.02 -0.67 -2.49 -0.79 -1.10 -0.27 -3.68 -0.80 -3.72 -0.76 -0.14 0.14 3.66 2.21 4.65 2.54 1.27 0.42 0.54 0.84 -1.28 0.74 -1.29 -0.08 -1.15 -0.15 -2.24 1.22 -1.51 1.92 -2.51 3.65 -3.47 6.07 -1.15 2.84 -1.83 5.97 -1.98 9.12 -0.11 1.99 0.28 5.82 0.85 8.50 0.11 0.51 0.20 1.15 0.20 1.42 0 0.52 -0.08 0.64 -1.54 2.28 -2.75 3.10 -5.81 7.93 -7.35 11.60 -1.09 2.61 -2 5.70 -2.29 7.75 -0.04 0.26 -0.03 0.27 0.07 0.11 0.06 -0.10 0.22 -0.35 0.35 -0.54 0.13 -0.20 0.61 -1.07 1.08 -1.93 0.95 -1.81 2.61 -4.48 3.26 -5.28 0.43 -0.53 0.43 -0.53 0.37 -0.22 -0.11 0.50 -0.79 1.99 -2.16 4.74 -1.94 3.89 -2.62 5.62 -3.37 8.65 -0.50 2.03 -0.74 3.83 -0.74 5.54 0.01 1.18 0.01 1.18 0.22 0.94 0.11 -0.14 0.68 -1.22 1.27 -2.42 1.21 -2.47 2.47 -4.69 3.39 -6 1.25 -1.82 1.40 -2.10 1.79 -3.67 0.39 -1.62 0.71 -2.46 1.44 -3.94 0.64 -1.27 1.40 -2.43 2.04 -3.12 0.51 -0.54 0.51 -0.54 0.33 0 -0.10 0.30 -0.47 1.14 -0.83 1.86 -1.09 2.21 -1.94 5.13 -1.94 6.59 0 1.34 0.33 1.86 1.18 1.85 0.36 0 0.63 -0.09 1.05 -0.34 0.69 -0.38 2.13 -1.72 2.67 -2.45 0.21 -0.30 0.77 -1.07 1.24 -1.73 1.06 -1.45 1.58 -2.07 1.73 -2.02 0.12 0.05 -0.88 2.26 -1.62 3.60 -0.69 1.22 -1.04 2.06 -1.42 3.45 -0.38 1.38 -0.41 1.89 -0.13 2.27 0.38 0.52 0.69 0.68 1.30 0.66 1.76 -0.04 3.54 -1.60 5.92 -5.20 0.77 -1.16 0.86 -1.26 0.89 -1.01 0.07 0.59 -0.89 2.57 -2.12 4.38 -1.56 2.28 -1.97 2.91 -2.99 4.61 -1.64 2.70 -3.76 5.75 -5.57 8 -1.54 1.92 -4.54 5.11 -5.50 5.87 -0.56 0.44 -1.67 1.12 -1.74 1.06 -0.02 -0.03 0.93 -1.17 2.11 -2.55 4.71 -5.49 7.84 -9.75 9.63 -13.12 0.55 -1.05 0.55 -1.05 -0.13 -1.01 -0.86 0.05 -1.63 -0.18 -2.31 -0.69 -0.28 -0.21 -0.55 -0.38 -0.61 -0.38 -0.07 0 -0.33 0.36 -0.59 0.80 -0.26 0.43 -0.65 1.06 -0.88 1.37 -0.85 1.15 -3.23 4.78 -5.08 7.75 -3.25 5.20 -4.68 7.17 -5.44 7.47 -0.20 0.08 -0.23 -0.06 -0.38 -1.75 -0.18 -1.95 -0.07 -5.12 0.21 -6.18 0.07 -0.29 0.04 -0.58 -0.18 -1.43 -0.27 -1.04 -0.28 -1.16 -0.27 -3.54 0 -1.75 0.05 -2.84 0.18 -3.75 0.09 -0.70 0.21 -2.48 0.26 -3.95 0.10 -3.02 0.25 -4.19 0.80 -6.36 1.28 -5.02 3.40 -9.56 6.53 -13.95 1.22 -1.71 2.12 -2.78 3.32 -3.98 0.80 -0.79 0.80 -0.79 0.80 -1.43 0 -0.36 -0.09 -0.96 -0.19 -1.33 -0.59 -2.15 -0.89 -5.81 -0.72 -8.69 0.13 -2.11 0.25 -2.86 0.81 -5.17 0.59 -2.40 1.21 -4.06 2.33 -6.23 0.64 -1.23 2 -3.28 2.92 -4.38 0.27 -0.32 0.44 -0.61 0.40 -0.65 -0.04 -0.03 -0.38 -0.27 -0.73 -0.52 -0.87 -0.61 -1.78 -1.83 -2.57 -3.45 -0.19 -0.38 -0.21 -0.50 -0.11 -0.71 0.13 -0.29 0.32 -0.28 1.29 0.06 0.30 0.10 0.57 0.18 0.61 0.18 0.12 0 -0.11 -0.57 -0.73 -1.88 -0.70 -1.47 -0.94 -2.26 -1.05 -3.49 -0.12 -1.39 0.05 -2.33 0.42 -2.33 0.07 0 0.79 0.39 1.61 0.88 2.58 1.52 4.96 2.68 7.29 3.56 0.54 0.21 1.21 0.48 1.48 0.63 0.64 0.35 1.44 0.35 2.55 0.01 2.40 -0.73 5.66 -1.30 8.70 -1.54 2.78 -0.21 9.32 0.28 12.24 0.92 2.04 0.45 2.13 0.45 2.71 0.08 0.27 -0.17 1.36 -0.75 2.44 -1.28 2 -1 4.25 -2.46 4.61 -3.01 0.29 -0.44 1.45 -1.62 1.74 -1.77 0.29 -0.14 0.29 -0.14 0.56 0.97 0.45 1.82 0.33 3.99 -0.34 5.67 -0.14 0.35 -0.24 0.64 -0.22 0.66 0.03 0.02 0.39 -0.01 0.82 -0.07 0.85 -0.11 0.95 -0.07 0.95 0.42 0 0.38 -0.54 1.92 -0.95 2.64 -0.21 0.36 -0.62 0.93 -0.95 1.27 -0.32 0.34 -0.57 0.64 -0.57 0.67 0 0.02 0.22 0.37 0.47 0.76 0.27 0.39 0.65 0.99 0.86 1.31 0.64 1.01 1.68 3.12 1.97 4 0.15 0.46 0.41 1.21 0.59 1.68 0.34 0.87 0.49 1.48 0.83 3.26 0.35 1.77 0.43 3.29 0.38 6.61 -0.05 3.20 -0.09 3.62 -0.57 5.63 -0.36 1.51 -1.48 5.05 -1.69 5.30 -0.12 0.15 -0.10 0.18 0.67 1.16 1.66 2.15 3.87 5.99 4.71 8.20 1.01 2.65 1.58 6.97 1.35 10.27 -0.14 2.12 -0.38 3.45 -0.92 5.37 -0.57 1.97 -1.21 3.51 -2.53 6.07 -2.39 4.66 -4.58 7.70 -7.90 11.01 -2.05 2.04 -3.87 3.47 -4.86 3.82 -0.27 0.10 -0.48 0.21 -0.48 0.25 0 0.15 -0.50 0.08 -0.55 -0.07z m-48.72 -4.94 c0.39 -0.59 1.04 -1.60 1.43 -2.22 0.38 -0.62 1.86 -2.93 3.27 -5.13 1.41 -2.20 2.77 -4.34 3.03 -4.77 0.56 -0.93 1.90 -3.62 1.83 -3.69 -0.02 -0.03 -0.24 0.07 -0.47 0.20 -0.62 0.37 -1.58 0.66 -2.12 0.66 -0.64 -0.01 -1.19 -0.28 -1.67 -0.83 -0.39 -0.45 -0.40 -0.46 -0.60 -0.29 -0.12 0.10 -0.72 1.09 -1.34 2.20 -2.57 4.61 -3.26 6.35 -4.02 10.17 -0.52 2.66 -0.52 2.67 -0.44 3.82 0.06 0.88 0.09 1.03 0.23 1 0.10 -0.02 0.49 -0.51 0.89 -1.12z m27.62 -42.45 c2.48 -0.42 4.19 -1.40 6.24 -3.55 1.58 -1.66 2.75 -3.57 3.39 -5.54 0.27 -0.81 0.38 -1.02 0.85 -1.52 0.58 -0.63 1.02 -0.94 1.53 -1.10 0.49 -0.15 1.61 -0.12 1.93 0.05 0.48 0.25 1.24 1 1.57 1.55 0.36 0.61 0.86 2.41 1.01 3.62 0.18 1.45 0.99 2.66 2.53 3.80 2.61 1.92 5.18 2.24 7.80 0.97 2.35 -1.15 3.98 -3.30 4.69 -6.22 0.40 -1.67 0.52 -2.82 0.45 -4.60 -0.07 -1.93 -0.23 -2.99 -0.70 -4.90 -0.78 -3.10 -1.68 -5.22 -3.07 -7.29 -0.68 -1.02 -0.94 -1.25 -1.43 -1.32 -1.52 -0.23 -1.75 -0.29 -1.73 -0.43 0.02 -0.09 0.15 -0.19 0.30 -0.23 0.54 -0.15 2.21 -1.36 2.77 -2.02 0.50 -0.59 0.64 -0.83 0.48 -0.83 -0.19 0 -1.97 1.11 -2.93 1.81 -0.60 0.45 -1.30 0.96 -1.54 1.12 -0.57 0.38 -0.60 0.50 -0.13 0.62 0.44 0.13 1.79 0.92 2.56 1.51 1.14 0.87 2.14 2.18 2.68 3.46 0.41 1.01 0.90 2.72 0.87 3.11 -0.01 0.17 -0.03 0.32 -0.03 0.32 -0.08 0 -0.58 -0.92 -0.82 -1.50 -0.88 -2.09 -2.58 -3.80 -4.44 -4.44 -0.53 -0.19 -0.85 -0.23 -1.74 -0.23 -1.70 0.01 -3.02 0.50 -4.66 1.72 -1.08 0.80 -1.73 1.55 -2.50 2.84 -1.06 1.76 -1.51 2.74 -1.72 3.71 -0.04 0.15 -0.11 0.25 -0.16 0.22 -0.16 -0.10 -0.12 -1.69 0.06 -2.36 0.22 -0.87 1.30 -3.03 2.01 -4.03 1.14 -1.59 2.95 -3.22 4.98 -4.47 1.23 -0.76 1.77 -1.18 2.94 -2.31 2.17 -2.10 3.30 -3.77 4.06 -6.07 0.14 -0.42 0.29 -1.03 0.33 -1.33 0.06 -0.55 0.06 -0.55 -0.61 0.08 -1.62 1.51 -3.62 2.67 -6.02 3.47 -0.62 0.22 -0.79 0.34 -1.70 1.22 -0.56 0.53 -1.13 1.04 -1.25 1.11 -0.40 0.22 -0.38 -0.07 0.10 -0.86 0.48 -0.82 0.50 -0.88 0.27 -0.87 -0.10 0 -1.09 -0.13 -2.20 -0.30 -5.51 -0.83 -8.80 -0.96 -13.08 -0.50 -2.13 0.22 -5.86 0.93 -6.09 1.15 -0.08 0.08 0.16 0.28 0.77 0.67 0.48 0.31 1.12 0.72 1.41 0.92 0.57 0.38 2.34 2.05 2.26 2.13 -0.12 0.12 -1.94 -0.58 -2.68 -1.03 -2.31 -1.37 -3.36 -1.88 -5.34 -2.54 -2.25 -0.75 -5.59 -2.17 -7.31 -3.12 -0.64 -0.37 -1.19 -0.61 -1.21 -0.55 -0.05 0.13 0.99 2.23 1.52 3.10 0.28 0.43 0.83 1.08 1.46 1.69 1.74 1.67 3.45 2.65 5.70 3.24 0.73 0.20 1.76 0.51 2.27 0.70 0.51 0.18 1.88 0.60 3.01 0.92 2.88 0.82 3.89 1.25 5.30 2.29 1.99 1.47 4.14 4.50 4.69 6.62 0.29 1.11 0.01 1.02 -0.71 -0.23 -0.55 -0.95 -1.82 -2.55 -2.59 -3.25 -1.63 -1.49 -3.47 -2.52 -5.30 -2.96 -3.84 -0.91 -7.62 -0.20 -9.68 1.83 -1.97 1.93 -3.40 5.67 -3.41 8.94 -0.01 5.52 2.68 9.97 6.98 11.54 1.50 0.54 3.44 0.71 5.02 0.44z m12.97 -0.10 c0 -0.02 -0.05 -0.28 -0.11 -0.56 -0.15 -0.68 -0.37 -1.12 -1.16 -2.24 -0.36 -0.51 -0.68 -0.98 -0.72 -1.04 -0.04 -0.06 -0.10 -0.08 -0.13 -0.04 -0.03 0.03 0.16 0.42 0.42 0.88 0.64 1.09 1.50 2.76 1.50 2.92 0 0.07 0.05 0.13 0.10 0.13 0.06 0 0.10 -0.02 0.10 -0.05z m2.02 -2.47 c0.26 -0.92 0.32 -3.51 0.11 -4.64 -0.35 -1.83 -1.15 -3.01 -2.27 -3.32 -0.48 -0.14 -0.82 -0.05 -1.27 0.34 -0.38 0.33 -0.38 0.33 0.26 0.73 0.76 0.48 1.31 1.15 1.85 2.23 0.48 0.99 0.66 1.81 0.75 3.43 0.06 1.31 0.20 2.05 0.34 1.92 0.05 -0.05 0.16 -0.36 0.25 -0.68z"/>
  <path d="M30.70 33.61 c-1.12 -0.26 -2.22 -0.87 -3.02 -1.69 -1.29 -1.32 -1.85 -2.73 -1.86 -4.68 0 -1.91 0.58 -3.47 1.76 -4.66 1.49 -1.51 3.33 -2.05 5.44 -1.61 1.47 0.32 2.82 1.30 3.81 2.80 1.92 2.94 1.11 7.05 -1.81 8.99 -1.16 0.77 -3 1.14 -4.32 0.84z m2.33 -0.98 c2.66 -0.70 4.29 -3.04 4.17 -5.93 -0.05 -1.01 -0.16 -1.28 -1.04 -2.54 -0.92 -1.31 -1.86 -1.92 -3.39 -2.21 -2.72 -0.51 -4.76 0.64 -5.60 3.17 -0.23 0.69 -0.27 0.96 -0.27 2.12 -0.01 1.46 0.09 1.90 0.66 2.99 0.53 1.01 2.01 2.17 3.09 2.43 0.58 0.14 1.81 0.12 2.37 -0.03z"/>
  <path d="M31.59 30.41 c-0.63 -0.20 -1.29 -0.74 -1.71 -1.40 -0.32 -0.52 -0.49 -1.37 -0.43 -2.12 0.09 -1.20 0.62 -2.13 1.45 -2.56 0.83 -0.42 1.73 -0.29 2.52 0.38 0.29 0.25 0.29 0.25 -0.13 0.63 -0.23 0.21 -0.41 0.45 -0.41 0.53 0 0.21 0.39 0.76 0.71 1 0.26 0.20 0.27 0.20 0.66 -0.01 0.26 -0.14 0.42 -0.18 0.46 -0.11 0.10 0.17 0.07 1.19 -0.05 1.64 -0.12 0.45 -0.70 1.27 -1.13 1.62 -0.50 0.38 -1.37 0.56 -1.94 0.39z"/>
  <path d="M50.39 32.57 c-2.08 -0.31 -3.87 -2.43 -4.28 -5.10 -0.37 -2.35 0.13 -4.03 1.62 -5.51 1.34 -1.33 2.73 -1.82 4.34 -1.49 1.71 0.36 2.63 1.06 3.36 2.59 0.60 1.26 0.79 2.10 0.79 3.65 0 1.09 -0.04 1.39 -0.23 1.96 -0.35 1.04 -0.68 1.62 -1.29 2.26 -1.22 1.30 -2.70 1.87 -4.30 1.64z m2.10 -1.09 c1.21 -0.59 2.24 -1.93 2.65 -3.45 0.22 -0.85 0.22 -2.55 -0.01 -3.33 -0.63 -2.17 -2.17 -3.39 -4.10 -3.26 -1.09 0.07 -1.81 0.38 -2.48 1.05 -0.71 0.71 -1.20 1.46 -1.53 2.33 -0.32 0.86 -0.37 2.30 -0.10 3.30 0.44 1.73 1.85 3.30 3.27 3.67 0.59 0.16 1.63 0.02 2.30 -0.32z"/>
  <path d="M49.74 29.47 c-0.62 -0.20 -1.29 -0.82 -1.56 -1.44 -0.46 -1.07 -0.35 -2.71 0.27 -3.58 0.15 -0.22 0.46 -0.49 0.71 -0.63 0.38 -0.20 0.54 -0.23 1.05 -0.19 0.53 0.04 1.22 0.31 1.22 0.46 0 0.03 -0.13 0.11 -0.30 0.17 -0.28 0.10 -0.30 0.15 -0.30 0.60 0 0.94 0.71 1.40 1.29 0.85 0.26 -0.25 0.26 -0.25 0.38 0.20 0.14 0.56 0.14 1.37 0 1.89 -0.15 0.54 -0.61 1.24 -1 1.50 -0.43 0.29 -1.18 0.37 -1.77 0.18z"/>
  <path d="M37.78 14.49 c-0.84 -0.83 -1.86 -1.82 -2.26 -2.20 -0.54 -0.51 -0.82 -0.88 -1.10 -1.42 -0.52 -1.04 -0.48 -1.51 0.05 -0.67 0.15 0.23 1.08 1.26 2.07 2.29 1 1.04 1.96 2.10 2.16 2.37 0.36 0.49 0.72 1.14 0.64 1.14 -0.02 0 -0.72 -0.68 -1.57 -1.50z"/>
  <path d="M41.40 14.98 c-0.17 -0.18 -0.63 -0.79 -1.03 -1.36 -0.93 -1.31 -1.62 -2.05 -2.14 -2.29 -0.31 -0.14 -0.48 -0.32 -0.71 -0.71 -0.17 -0.29 -0.31 -0.58 -0.31 -0.65 0 -0.21 0.58 -0.03 1.06 0.33 0.96 0.71 3.97 5 3.51 5 -0.05 0 -0.23 -0.15 -0.38 -0.32z"/>
  <path d="M43.79 14.56 c-0.04 -0.25 -0.06 -1.40 -0.04 -2.57 0.03 -2.32 0.03 -2.33 0.51 -1.33 0.31 0.65 0.30 2.39 -0.03 3.53 -0.13 0.44 -0.27 0.81 -0.31 0.81 -0.04 0 -0.11 -0.20 -0.14 -0.44z"/>
  <path d="M46.15 13.09 c-0.14 -0.89 -0.01 -2.13 0.27 -2.74 0.28 -0.60 0.59 -0.77 0.70 -0.38 0.12 0.44 -0.14 1.75 -0.51 2.66 -0.38 0.94 -0.38 0.94 -0.45 0.46z"/>
  <path d="M36.18 85.43 c0.28 -0.13 0.54 -0.24 0.60 -0.24 0.05 0 0.61 -0.41 1.23 -0.92 1.06 -0.87 2.34 -2.22 2.77 -2.93 0.29 -0.47 0.33 -0.29 0.08 0.43 -0.57 1.75 -2.24 3.30 -4.02 3.76 -0.31 0.08 -0.70 0.15 -0.87 0.14 -0.28 -0.01 -0.27 -0.02 0.20 -0.25z"/>
  <path d="M42.41 83.56 c-0.03 -0.09 0.03 -0.19 0.16 -0.26 0.83 -0.44 2.66 -2.13 3.74 -3.47 0.90 -1.10 1.15 -1.52 1.57 -2.59 0.44 -1.16 0.49 -0.75 0.08 0.64 -0.47 1.54 -1.19 2.77 -2.30 3.93 -0.75 0.80 -1.37 1.25 -2.09 1.54 -0.84 0.34 -1.09 0.38 -1.15 0.21z"/>
  <path d="M28.73 81.79 c-0.30 -0.06 -0.68 -0.19 -0.85 -0.28 -0.31 -0.17 -0.93 -0.80 -1.12 -1.14 -0.19 -0.37 -0.33 -1.51 -0.26 -2.15 0.08 -0.82 0.30 -0.87 0.38 -0.10 0.07 0.64 0.38 1.51 0.66 1.87 0.35 0.43 0.89 0.65 1.65 0.65 0.91 0 1.55 -0.21 2.41 -0.78 0.95 -0.64 2.58 -2.33 3.14 -3.26 0.24 -0.40 0.45 -0.68 0.47 -0.62 0.07 0.23 -0.86 2.30 -1.40 3.11 -0.86 1.29 -1.88 2.15 -2.99 2.53 -0.80 0.26 -1.46 0.32 -2.10 0.17z"/>
  <path d="M50 81.65 c0.06 -0.04 0.41 -0.28 0.79 -0.52 1.22 -0.81 3.24 -2.97 4.35 -4.68 0.51 -0.80 1.23 -2.16 1.37 -2.62 0.11 -0.35 0.36 -0.70 0.44 -0.64 0.16 0.10 -0.49 2.17 -0.99 3.21 -0.91 1.87 -1.80 3 -3.21 4.10 -0.98 0.76 -1.92 1.23 -2.47 1.23 -0.22 0 -0.35 -0.04 -0.30 -0.08z"/>
  <path d="M40.42 73.19 c-0.92 -0.23 -1.76 -0.91 -1.96 -1.58 -0.10 -0.33 0.29 -0.38 0.48 -0.07 0.22 0.33 1.09 0.72 1.60 0.72 1.02 0 2.33 -0.83 3.31 -2.08 0.32 -0.39 0.82 -1.24 1.14 -1.87 0.63 -1.26 0.75 -1.24 0.48 0.06 -0.42 2.02 -1.68 3.86 -3.07 4.49 -0.62 0.28 -1.54 0.43 -1.97 0.33z"/>
  <path d="M31.86 71.86 c-0.64 -0.11 -1.42 -0.55 -1.82 -1.04 -0.76 -0.94 -1.24 -2.57 -1.09 -3.65 0.08 -0.46 0.08 -0.46 0.41 0.55 0.97 2.88 2.58 3.86 4.67 2.84 0.72 -0.36 1.56 -1.15 2.18 -2.09 0.39 -0.57 0.41 -0.59 0.36 -0.27 -0.11 0.54 -0.70 1.68 -1.16 2.21 -0.58 0.68 -1.43 1.19 -2.25 1.38 -0.38 0.09 -0.72 0.15 -0.76 0.15 -0.04 -0.01 -0.29 -0.05 -0.54 -0.09z"/>
  <path d="M49.63 71.05 c-0.26 -0.07 -0.38 -0.16 -0.38 -0.28 0 -0.13 0.11 -0.19 0.48 -0.24 0.65 -0.09 1.58 -0.57 2.23 -1.16 1.04 -0.95 1.71 -2.02 2.61 -4.18 0.55 -1.31 0.61 -1.43 0.73 -1.36 0.24 0.15 -0.20 2.20 -0.77 3.61 -0.96 2.38 -3.24 4.06 -4.91 3.60z"/>
  <path d="M57.55 65.24 c0 -0.05 -0.07 -0.09 -0.16 -0.09 -0.11 0 -0.03 -0.14 0.24 -0.44 0.41 -0.47 1.04 -1.58 1.40 -2.52 0.29 -0.71 1.09 -3.53 1.09 -3.81 0 -0.12 0.06 -0.24 0.14 -0.27 0.21 -0.08 0.31 1.62 0.16 2.67 -0.23 1.72 -0.69 2.69 -1.74 3.74 -0.64 0.64 -1.13 0.95 -1.13 0.72z"/>
  <path d="M47.04 62.79 c-0.24 -0.11 -0.69 -0.70 -0.53 -0.70 0.06 0 0.29 0.05 0.48 0.11 0.60 0.18 1.25 -0.10 2.10 -0.89 0.55 -0.52 0.77 -0.81 1.08 -1.47 0.56 -1.19 0.69 -1.92 0.65 -3.89 -0.02 -0.90 -0.01 -1.63 0.01 -1.60 0.02 0.02 0.23 0.47 0.45 1.02 0.23 0.53 0.51 1.14 0.63 1.32 0.28 0.45 0.93 1.04 1.24 1.12 0.65 0.16 1.40 -0.28 1.87 -1.09 0.41 -0.72 0.87 -2.30 0.94 -3.30 0.03 -0.50 0.11 -0.92 0.16 -0.94 0.13 -0.03 0.33 1.10 0.34 1.98 0.02 1.50 -0.60 3.38 -1.29 3.90 -0.83 0.63 -2.03 0.76 -2.99 0.33 -0.54 -0.25 -0.54 -0.25 -0.58 -0.03 -0.02 0.12 -0.09 0.46 -0.15 0.77 -0.38 1.87 -1.92 3.36 -3.56 3.42 -0.36 0.02 -0.73 -0.01 -0.84 -0.06z"/>
  <path d="M42.69 61.47 c-0.80 -0.32 -1.41 -0.89 -2.21 -2.06 -0.17 -0.27 -0.36 -0.47 -0.40 -0.47 -0.05 0 -0.29 0.32 -0.54 0.69 -0.72 1.08 -1.37 1.48 -2.41 1.48 -0.72 0 -1 -0.10 -1.65 -0.59 -0.87 -0.65 -1.61 -1.97 -1.83 -3.26 -0.20 -1.15 -0.21 -1.23 -0.11 -1.14 0.05 0.06 0.14 0.24 0.20 0.41 0.16 0.47 1.08 1.79 1.65 2.36 0.28 0.29 0.69 0.60 0.92 0.72 0.48 0.25 1.28 0.28 1.69 0.07 0.77 -0.40 1.73 -1.99 2.12 -3.54 0.13 -0.51 0.13 -0.51 0.21 0.03 0.07 0.56 0.81 2.45 1.19 3.06 0.49 0.81 1.36 1.27 2.10 1.14 1.16 -0.22 1.96 -1.19 2.68 -3.26 0.28 -0.79 0.28 -0.79 0.28 0.16 0.01 1.15 -0.21 1.95 -0.77 2.82 -0.44 0.69 -0.88 1.06 -1.59 1.32 -0.55 0.21 -1.09 0.23 -1.53 0.06z"/>
  <path d="M36.60 49.44 c-0.38 -0.14 -0.38 -0.47 0.01 -0.47 0.48 0 1.46 -0.29 2.35 -0.70 0.65 -0.30 1.01 -0.54 1.57 -1.10 0.40 -0.38 0.73 -0.65 0.73 -0.59 0 0.07 -0.14 0.40 -0.31 0.76 -0.37 0.79 -0.94 1.30 -2.02 1.83 -0.68 0.35 -0.88 0.39 -1.43 0.38 -0.35 0 -0.75 -0.05 -0.90 -0.11z"/>
  <path d="M46.95 48.85 c-0.49 -0.12 -1.47 -0.64 -1.80 -0.97 -0.27 -0.26 -0.19 -0.39 0.13 -0.23 0.46 0.25 3.23 0.78 3.58 0.68 0.24 -0.06 0.35 0.07 0.17 0.21 -0.18 0.14 -1.15 0.41 -1.44 0.40 -0.14 -0.01 -0.42 -0.05 -0.64 -0.10z"/>
  <path d="M33.22 48.27 c-0.03 -0.05 -0.03 -0.10 0.01 -0.10 0.05 0 -0.11 -0.20 -0.35 -0.43 -0.42 -0.43 -0.42 -0.43 0.46 -0.38 1.12 0.06 1.95 -0.18 2.93 -0.82 0.38 -0.25 0.73 -0.44 0.80 -0.44 0.22 0 0.25 0.33 0.07 0.58 -0.31 0.40 -1.64 1.24 -2.34 1.47 -0.69 0.23 -1.48 0.29 -1.59 0.12z"/>
  <path d="M50.91 47.08 c-0.42 -0.10 -1.56 -0.70 -1.75 -0.94 -0.19 -0.22 -0.05 -0.28 0.32 -0.15 0.47 0.17 2.28 0.40 3.06 0.40 0.70 0 0.82 0.08 0.45 0.32 -0.51 0.34 -1.49 0.50 -2.08 0.37z"/>
  <path d="M29.51 46.65 c-0.43 -0.12 -0.93 -0.40 -1.15 -0.67 -0.09 -0.12 0.05 -0.13 0.81 -0.10 0.93 0.04 2.04 -0.17 2.72 -0.52 0.15 -0.08 0.46 -0.19 0.68 -0.24 0.38 -0.08 0.40 -0.08 0.29 0.07 -0.61 0.83 -1.22 1.24 -2.07 1.45 -0.73 0.17 -0.69 0.17 -1.27 0.01z"/>
  <path d="M53.75 45.28 c-0.34 -0.20 -1.10 -1.03 -1.01 -1.12 0.01 -0.02 0.31 0.08 0.65 0.22 0.45 0.19 0.79 0.25 1.30 0.25 1.03 0 1.48 -0.35 2.10 -1.56 0.14 -0.29 0.30 -0.52 0.34 -0.52 0.20 0 0.32 0.28 0.32 0.70 0 0.39 -0.06 0.54 -0.38 0.95 -0.48 0.61 -0.95 0.96 -1.53 1.15 -0.67 0.23 -1.32 0.20 -1.80 -0.07z"/>
  <path d="M18.11 44.11 c-0.66 -0.32 -2.78 -0.88 -3.28 -0.88 -0.18 0 -0.33 -0.04 -0.33 -0.09 0 -0.15 0.89 -0.40 1.38 -0.40 0.85 0 2.02 0.54 2.66 1.21 0.37 0.39 0.21 0.45 -0.43 0.16z"/>
  <path d="M18.89 40.47 c-0.33 -0.13 -1.42 -1.38 -1.72 -1.97 -0.26 -0.51 -0.60 -1.86 -0.58 -2.31 0 -0.11 0.09 0.04 0.20 0.34 0.11 0.30 0.43 0.90 0.72 1.33 0.53 0.79 1.55 2.36 1.68 2.60 0.08 0.14 0 0.14 -0.30 0.02z"/>
  <path d="M14.81 35.32 c-0.53 -1.29 -0.67 -2.10 -0.51 -3.14 0.06 -0.43 0.20 -0.95 0.31 -1.15 0.20 -0.38 0.20 -0.38 0.21 0.86 0 1.21 0.22 3.38 0.39 4.04 0.18 0.64 0.03 0.41 -0.39 -0.60z"/>
 </g>
</svg>